<svg xmlns="http://www.w3.org/2000/svg" xmlns:xlink="http://www.w3.org/1999/xlink" width="171" zoomAndPan="magnify" viewBox="0 0 128.25 30.000001" height="40" preserveAspectRatio="xMidYMid meet" version="1.0"><defs><g/></defs><g fill="#ffffff" fill-opacity="1"><g transform="translate(2.198965, 21.172799)"><g><path d="M 13.097656 0 L 13.097656 -3.40625 L 5.386719 -3.40625 L 5.386719 -16.800781 L 1.542969 -16.800781 L 1.542969 0 Z M 13.097656 0 "/></g></g></g><g fill="#ffffff" fill-opacity="1"><g transform="translate(15.660052, 21.172799)"><g><path d="M 9.550781 -6.28125 C 9.550781 -3.980469 8.515625 -2.945312 7.042969 -2.945312 C 5.570312 -2.945312 4.878906 -3.660156 4.878906 -5.707031 L 4.878906 -12.199219 L 1.21875 -12.199219 L 1.21875 -5.179688 C 1.21875 -1.566406 3.085938 0.300781 5.800781 0.300781 C 7.941406 0.300781 9.621094 -0.898438 10.265625 -3.542969 L 11.394531 0 L 13.234375 0 L 13.234375 -12.199219 L 9.550781 -12.199219 Z M 9.550781 -6.28125 "/></g></g></g><g fill="#ffffff" fill-opacity="1"><g transform="translate(30.386715, 21.172799)"><g><path d="M 17.007812 -12.429688 C 15.257812 -12.429688 13.71875 -11.414062 12.933594 -9.320312 C 12.289062 -11.4375 10.75 -12.496094 8.835938 -12.496094 C 6.742188 -12.496094 5.085938 -11.324219 4.441406 -8.652344 L 3.335938 -12.199219 L 1.496094 -12.199219 L 1.496094 0 L 5.203125 0 L 5.203125 -5.914062 C 5.203125 -8.214844 6.238281 -9.253906 7.570312 -9.253906 C 8.882812 -9.253906 9.597656 -8.539062 9.597656 -6.492188 L 9.597656 0 L 13.257812 0 L 13.257812 -5.914062 C 13.257812 -8.195312 14.339844 -9.253906 15.652344 -9.253906 C 16.960938 -9.253906 17.675781 -8.539062 17.675781 -6.558594 L 17.675781 0 L 21.335938 0 L 21.335938 -6.835938 C 21.335938 -10.585938 19.492188 -12.429688 17.007812 -12.429688 Z M 17.007812 -12.429688 "/></g></g></g><g fill="#ffffff" fill-opacity="1"><g transform="translate(52.936918, 21.172799)"><g><path d="M 5.386719 -15.742188 C 5.386719 -14.546875 4.601562 -13.785156 3.335938 -13.785156 C 2.046875 -13.785156 1.265625 -14.546875 1.265625 -15.742188 C 1.265625 -16.917969 2.046875 -17.699219 3.335938 -17.699219 C 4.601562 -17.699219 5.386719 -16.917969 5.386719 -15.742188 Z M 5.179688 0 L 5.179688 -12.199219 L 1.496094 -12.199219 L 1.496094 0 Z M 5.179688 0 "/></g></g></g><g fill="#ff7300" fill-opacity="1"><g transform="translate(59.617059, 21.172799)"><g><path d="M 9.320312 -12.496094 C 6.972656 -12.496094 5.109375 -11.09375 4.464844 -8.609375 L 3.335938 -12.199219 L 1.496094 -12.199219 L 1.496094 4.601562 L 5.179688 4.601562 L 5.179688 -2.324219 C 6.007812 -0.621094 7.527344 0.300781 9.320312 0.300781 C 12.175781 0.300781 14.546875 -2.070312 14.546875 -5.867188 L 14.546875 -6.328125 C 14.546875 -10.125 12.175781 -12.496094 9.320312 -12.496094 Z M 8.03125 -2.875 C 6.28125 -2.875 5.179688 -3.980469 5.179688 -6.121094 C 5.179688 -8.214844 6.28125 -9.320312 8.03125 -9.320312 C 9.78125 -9.320312 10.863281 -8.261719 10.863281 -6.121094 C 10.863281 -3.9375 9.78125 -2.875 8.03125 -2.875 Z M 8.03125 -2.875 "/></g></g></g><g fill="#ff7300" fill-opacity="1"><g transform="translate(74.87296, 21.172799)"><g><path d="M 13.578125 -6.835938 C 13.578125 -10.125 11.207031 -12.496094 7.296875 -12.496094 C 3.175781 -12.496094 0.714844 -10.058594 0.714844 -6.328125 L 0.714844 -5.867188 C 0.714844 -2.140625 3.175781 0.300781 7.226562 0.300781 C 11.070312 0.300781 13.003906 -1.75 13.371094 -4.074219 L 9.550781 -4.074219 C 9.207031 -3.222656 8.585938 -2.601562 7.042969 -2.601562 C 5.476562 -2.601562 4.511719 -3.382812 4.304688 -5.292969 L 13.488281 -5.292969 C 13.554688 -5.800781 13.578125 -6.191406 13.578125 -6.835938 Z M 7.203125 -9.6875 C 8.769531 -9.6875 9.710938 -8.953125 9.898438 -7.320312 L 4.328125 -7.320312 C 4.601562 -8.976562 5.59375 -9.6875 7.203125 -9.6875 Z M 7.203125 -9.6875 "/></g></g></g><g fill="#ff7300" fill-opacity="1"><g transform="translate(89.185432, 21.172799)"><g><path d="M 10.105469 -9.875 C 9.273438 -11.578125 7.734375 -12.496094 5.960938 -12.496094 C 3.085938 -12.496094 0.714844 -10.125 0.714844 -6.328125 L 0.714844 -5.867188 C 0.714844 -2.070312 3.085938 0.300781 5.960938 0.300781 C 8.285156 0.300781 10.171875 -1.105469 10.792969 -3.589844 L 11.945312 0 L 13.761719 0 L 13.761719 -16.800781 L 10.105469 -16.800781 Z M 7.25 -2.875 C 5.476562 -2.875 4.417969 -3.9375 4.417969 -6.074219 C 4.417969 -8.261719 5.476562 -9.320312 7.25 -9.320312 C 8.976562 -9.320312 10.105469 -8.214844 10.105469 -6.074219 C 10.105469 -3.980469 8.976562 -2.875 7.25 -2.875 Z M 7.25 -2.875 "/></g></g></g><g fill="#ff7300" fill-opacity="1"><g transform="translate(104.441332, 21.172799)"><g><path d="M 5.386719 -15.742188 C 5.386719 -14.546875 4.601562 -13.785156 3.335938 -13.785156 C 2.046875 -13.785156 1.265625 -14.546875 1.265625 -15.742188 C 1.265625 -16.917969 2.046875 -17.699219 3.335938 -17.699219 C 4.601562 -17.699219 5.386719 -16.917969 5.386719 -15.742188 Z M 5.179688 0 L 5.179688 -12.199219 L 1.496094 -12.199219 L 1.496094 0 Z M 5.179688 0 "/></g></g></g><g fill="#ff7300" fill-opacity="1"><g transform="translate(111.114352, 21.172799)"><g><path d="M 7.113281 -12.496094 C 3.246094 -12.496094 1.449219 -10.65625 1.105469 -7.984375 L 4.808594 -7.984375 C 5.015625 -8.976562 5.640625 -9.597656 7.089844 -9.597656 C 8.492188 -9.597656 9.160156 -9.066406 9.34375 -7.757812 L 7.226562 -7.457031 C 2.785156 -6.8125 0.828125 -5.339844 0.828125 -2.855469 C 0.828125 -1.105469 2.253906 0.300781 4.765625 0.300781 C 7.457031 0.300781 9.414062 -1.058594 10.171875 -3.359375 L 11.207031 0 L 13.027344 0 L 13.027344 -6.652344 C 13.027344 -10.5625 11.070312 -12.496094 7.113281 -12.496094 Z M 6.007812 -2.554688 C 5.039062 -2.554688 4.578125 -3.015625 4.578125 -3.613281 C 4.578125 -4.511719 5.660156 -5.203125 8.214844 -5.59375 L 9.460938 -5.753906 C 9.460938 -4.027344 7.964844 -2.554688 6.007812 -2.554688 Z M 6.007812 -2.554688 "/></g></g></g></svg>